<svg xmlns="http://www.w3.org/2000/svg" viewBox="0 0 48 48">
    <circle cx="24" cy="24" r="24" fill="#F0780C" />

    <path fill="#FFFFFF"
        d="M17 12C13.7 12 11 14.7 11 18V30C11 33.3 13.7 36 17 36H31C34.3 36 37 33.3 37 30V24.5C37 23.4 36.1 22.5 35 22.5C33.9 22.5 33 21.6 33 20.5V18C33 14.7 30.3 12 27 12H17ZM18 18H26C27.7 18 29 19.3 29 21C29 22.7 27.7 24 26 24H18C16.3 24 15 22.7 15 21C15 19.3 16.3 18 18 18ZM18 26H27C28.7 26 30 27.3 30 29C30 30.7 28.7 32 27 32H18C16.3 32 15 30.7 15 29C15 27.3 16.3 26 18 26Z" />
</svg>